<svg xmlns="http://www.w3.org/2000/svg" width="33" height="27" viewBox="0 0 33 27" fill="none">
  <path d="M10.4567 9.91688C10.4229 10.9786 10.9535 11.4487 10.9667 11.7473C10.9604 11.8081 10.9397 11.8665 10.9063 11.9176C10.8728 11.9687 10.8276 12.0111 10.7745 12.0412L10.1745 12.4612C10.0968 12.5156 10.0053 12.5469 9.91059 12.5512C9.89043 12.5503 9.52669 12.637 8.95061 11.3508C8.59913 11.7895 8.15194 12.142 7.64326 12.3812C7.13457 12.6205 6.57789 12.7402 6.01581 12.7312C5.2527 12.7729 3.18461 12.2981 3.29101 10.0964C3.21648 8.30206 4.88755 7.18739 6.6158 7.28161C6.94861 7.28254 7.62828 7.29895 8.81842 7.57551V6.84333C8.94451 5.60304 8.12937 4.64071 6.71799 4.78509C6.60549 4.78556 5.80863 4.76165 4.56927 5.25899C4.22428 5.41742 4.18022 5.39117 4.06537 5.39117C3.71804 5.39117 3.861 4.38431 3.92756 4.25681C4.17178 3.95682 5.60847 3.39667 7.01845 3.40464C7.96121 3.32126 8.89891 3.61222 9.62888 4.21463C9.9256 4.54654 10.152 4.93514 10.2943 5.35698C10.4367 5.77881 10.4921 6.22513 10.4571 6.66896L10.4567 9.91688ZM6.4058 11.4351C7.92593 11.4131 8.56952 10.4991 8.71623 10.0069C8.83154 9.53579 8.81233 9.23767 8.81233 8.72252C8.35905 8.61377 7.70656 8.49518 6.95798 8.49424C6.24784 8.44081 4.95083 8.75815 5.00145 10.0064C4.94333 10.7934 5.52269 11.4783 6.4058 11.4351ZM14.4175 12.5156C14.0491 12.5493 13.8776 12.2878 13.8232 12.0295L11.4888 4.31166C11.4434 4.18135 11.4134 4.04682 11.3988 3.90948C11.3902 3.85285 11.4045 3.79513 11.4384 3.74898C11.4723 3.70284 11.5232 3.67205 11.5798 3.66339C11.591 3.66151 11.4799 3.66339 12.6227 3.66339C13.0343 3.62214 13.1683 3.94604 13.211 4.14947L14.8854 10.7508L16.4397 4.14947C16.4645 3.99854 16.5775 3.63057 17.0397 3.66948H17.8441C17.9458 3.66104 18.3648 3.64604 18.4384 4.15557L20.005 10.8412L21.7332 4.15557C21.7557 4.05338 21.8607 3.62261 22.3276 3.66948H23.2519C23.2918 3.66339 23.5402 3.63151 23.498 4.07166C23.4779 4.15838 23.6579 3.57198 21.0254 12.0356C20.9715 12.2939 20.7995 12.5554 20.431 12.5217H19.555C19.0422 12.5756 18.9686 12.0689 18.9606 12.0178L17.4062 5.58992L15.8697 12.0112C15.8622 12.0623 15.7886 12.569 15.2753 12.5151H14.4175V12.5156ZM27.2367 12.7795C26.9611 12.78 25.6467 12.7654 24.548 12.2034C24.4386 12.1571 24.3453 12.0793 24.2802 11.9799C24.215 11.8805 24.1808 11.764 24.1819 11.6451V11.1412C24.1819 10.7451 24.4725 10.8178 24.5958 10.8651C25.0664 11.0555 25.3683 11.1998 25.9463 11.3151C27.6642 11.6681 28.4198 11.2073 28.605 11.1051C29.2214 10.7391 29.2701 9.90141 28.8511 9.46688C28.3598 9.05486 28.1254 9.03939 26.3606 8.48253C26.1431 8.42206 24.3122 7.84457 24.308 6.02819C24.2794 4.70446 25.4822 3.3948 27.5667 3.40558C28.1606 3.40511 29.7431 3.59917 30.1715 4.13775C30.2348 4.23572 30.2662 4.35103 30.2615 4.46775V4.94165C30.2615 5.14977 30.1856 5.25383 30.0332 5.25383C29.6718 5.21352 29.0306 4.73024 27.7289 4.74993C27.4059 4.73306 25.8591 4.79259 25.9284 5.92038C25.9083 6.80912 27.1758 7.14239 27.3206 7.18083C29.0296 7.69504 29.601 7.78035 30.2793 8.56737C31.0827 9.61032 30.6496 10.8314 30.4832 11.1661C29.5889 12.9234 27.2761 12.7804 27.2367 12.7795ZM29.1211 17.6947C25.8385 20.1191 21.0732 21.4095 17.0045 21.4095C11.5146 21.4457 6.20978 19.4271 2.13275 15.7504C1.82666 15.4743 2.09666 15.096 2.46884 15.3065C6.99147 17.8935 12.1121 19.2529 17.3223 19.2495C21.2132 19.2287 25.0617 18.4394 28.6467 16.9269C29.1989 16.6925 29.6671 17.2925 29.1211 17.6947ZM30.4893 16.1343C30.0693 15.5943 27.7106 15.8821 26.6545 16.0082C26.3363 16.0443 26.2823 15.7682 26.5706 15.5643C28.4489 14.2438 31.5337 14.6221 31.888 15.066C32.2419 15.5099 31.7919 18.6008 30.0337 20.0773C29.7637 20.3056 29.5054 20.1851 29.6254 19.8851C30.021 18.8891 30.9093 16.6747 30.4893 16.1343Z" fill="#3B3D3B"/>
</svg>