<svg xmlns="http://www.w3.org/2000/svg" width="25" height="26" viewBox="0 0 25 26" fill="none">
  <g clip-path="url(#clip0_560_7301)">
    <path d="M13.2833 1.50761C13.3483 1.32926 13.3504 1.13407 13.2893 0.954356C13.2282 0.774639 13.1076 0.621158 12.9475 0.519303C12.7873 0.417448 12.5972 0.373325 12.4085 0.394232C12.2199 0.415139 12.044 0.499825 11.91 0.634278L5.24334 7.30094C5.16832 7.37611 5.10835 7.46493 5.06668 7.56261L0.0666759 19.2293C0.0123152 19.3561 -0.009709 19.4944 0.00257986 19.6318C0.0148687 19.7693 0.0610861 19.9015 0.137084 20.0166C0.213082 20.1318 0.316483 20.2263 0.438006 20.2916C0.559529 20.3569 0.695372 20.3911 0.833343 20.3909H5.83334C6.0046 20.3909 6.17168 20.338 6.31185 20.2396C6.45201 20.1412 6.55845 20.002 6.61668 19.8409L13.2833 1.50761ZM16.5917 4.21261C16.5243 4.06367 16.4146 3.93784 16.2762 3.85078C16.1378 3.76373 15.9769 3.71931 15.8134 3.72304C15.65 3.72677 15.4913 3.77849 15.357 3.87177C15.2227 3.96504 15.1189 4.09575 15.0583 4.24761L11.725 12.5809C11.672 12.7139 11.6541 12.8583 11.6731 13.0001C11.692 13.142 11.7472 13.2766 11.8333 13.3909L16.14 19.1326L7.23668 22.0993C7.04815 22.1612 6.88792 22.2884 6.78482 22.458C6.68172 22.6276 6.64252 22.8284 6.67426 23.0243C6.70601 23.2201 6.80662 23.3983 6.95799 23.5266C7.10936 23.6549 7.30156 23.725 7.50001 23.7243H24.1667C24.3061 23.7242 24.4433 23.6892 24.5657 23.6224C24.6881 23.5556 24.7917 23.4592 24.8672 23.3419C24.9427 23.2247 24.9875 23.0904 24.9976 22.9513C25.0077 22.8122 24.9827 22.6729 24.925 22.5459L16.5917 4.21261Z" fill="#3B3D3B"/>
  </g>
  <defs>
    <clipPath id="clip0_560_7301">
      <rect width="25" height="25" fill="white" transform="translate(0 0.390625)"/>
    </clipPath>
  </defs>
</svg>