<svg xmlns="http://www.w3.org/2000/svg" width="22" height="22" viewBox="0 0 22 22" fill="none">
  <path d="M6.5 5C5.675 5 5 5.731 5 6.625V16.375C5 17.269 5.675 18 6.5 18H15.5C16.325 18 17 17.269 17 16.375V6.625C17 5.731 16.325 5 15.5 5" stroke="black" stroke-width="1.5" stroke-miterlimit="10" stroke-linecap="round" stroke-linejoin="round"/>
  <path d="M12.5 7H9.5C9.225 7 9 6.831 9 6.625V4.375C9 4.169 9.225 4 9.5 4H12.5C12.775 4 13 4.169 13 4.375V6.625C13 6.831 12.775 7 12.5 7Z" stroke="black" stroke-width="1.5" stroke-miterlimit="10" stroke-linecap="round" stroke-linejoin="round"/>
</svg>