<svg xmlns="http://www.w3.org/2000/svg" width="19" height="18" viewBox="0 0 19 18" fill="none">
  <path d="M16.7701 9.34734C16.7275 9.24455 16.6554 9.15669 16.5629 9.09486C16.4704 9.03303 16.3617 9.00002 16.2504 9H13.4379V7.3125C13.4379 7.16332 13.3787 7.02024 13.2732 6.91475C13.1677 6.80926 13.0246 6.75 12.8754 6.75H6.12544C5.97626 6.75 5.83318 6.80926 5.7277 6.91475C5.62221 7.02024 5.56294 7.16332 5.56294 7.3125V9H2.75044C2.63913 8.99991 2.53029 9.03286 2.4377 9.09466C2.34512 9.15646 2.27295 9.24434 2.23034 9.34718C2.18773 9.45002 2.17659 9.56319 2.19833 9.67236C2.22007 9.78153 2.27372 9.8818 2.35247 9.96047L9.10247 16.7105C9.15472 16.7628 9.21675 16.8043 9.28504 16.8326C9.35333 16.8609 9.42652 16.8754 9.50044 16.8754C9.57436 16.8754 9.64756 16.8609 9.71585 16.8326C9.78413 16.8043 9.84617 16.7628 9.89841 16.7105L16.6484 9.96047C16.7271 9.88176 16.7806 9.78149 16.8022 9.67236C16.8239 9.56322 16.8127 9.45011 16.7701 9.34734ZM9.50044 15.5173L4.10818 10.125H6.12544C6.27463 10.125 6.4177 10.0657 6.52319 9.96025C6.62868 9.85476 6.68794 9.71168 6.68794 9.5625V7.875H12.3129V9.5625C12.3129 9.71168 12.3722 9.85476 12.4777 9.96025C12.5832 10.0657 12.7263 10.125 12.8754 10.125H14.8927L9.50044 15.5173ZM5.56294 2.8125C5.56294 2.66332 5.62221 2.52024 5.7277 2.41475C5.83318 2.30926 5.97626 2.25 6.12544 2.25H12.8754C13.0246 2.25 13.1677 2.30926 13.2732 2.41475C13.3787 2.52024 13.4379 2.66332 13.4379 2.8125C13.4379 2.96168 13.3787 3.10476 13.2732 3.21025C13.1677 3.31574 13.0246 3.375 12.8754 3.375H6.12544C5.97626 3.375 5.83318 3.31574 5.7277 3.21025C5.62221 3.10476 5.56294 2.96168 5.56294 2.8125ZM5.56294 5.0625C5.56294 4.91332 5.62221 4.77024 5.7277 4.66475C5.83318 4.55926 5.97626 4.5 6.12544 4.5H12.8754C13.0246 4.5 13.1677 4.55926 13.2732 4.66475C13.3787 4.77024 13.4379 4.91332 13.4379 5.0625C13.4379 5.21168 13.3787 5.35476 13.2732 5.46025C13.1677 5.56574 13.0246 5.625 12.8754 5.625H6.12544C5.97626 5.625 5.83318 5.56574 5.7277 5.46025C5.62221 5.35476 5.56294 5.21168 5.56294 5.0625Z" fill="#379E4E"/>
  <path d="M9.50044 15.5173L4.10818 10.125H6.12544C6.27463 10.125 6.4177 10.0657 6.52319 9.96025C6.62868 9.85476 6.68794 9.71168 6.68794 9.5625V7.875H12.3129V9.5625C12.3129 9.71168 12.3722 9.85476 12.4777 9.96025C12.5832 10.0657 12.7263 10.125 12.8754 10.125H14.8927L9.50044 15.5173Z" fill="#379E4E"/>
</svg>