<svg xmlns="http://www.w3.org/2000/svg" width="40" height="41" viewBox="0 0 40 41" fill="none">
  <g clip-path="url(#clip0_500_1874)">
    <path d="M34 0.390625H6C2.68629 0.390625 0 3.07692 0 6.39062V34.3906C0 37.7043 2.68629 40.3906 6 40.3906H34C37.3137 40.3906 40 37.7043 40 34.3906V6.39062C40 3.07692 37.3137 0.390625 34 0.390625Z" fill="#E9E9E9"/>
    <path fill-rule="evenodd" clip-rule="evenodd" d="M11.3506 20.7407C11.4906 21.0107 14.8206 26.7407 20.0006 26.7407C25.1806 26.7407 28.5106 21.0107 28.6506 20.7407C28.7807 20.5112 28.7807 20.2302 28.6506 20.0007C28.5106 19.7307 25.1806 14.0007 20.0006 14.0007C14.8206 14.0007 11.4906 19.7507 11.3506 20.0007C11.2204 20.2302 11.2204 20.5112 11.3506 20.7407ZM20.0006 25.2407C16.3806 25.2407 13.6706 21.5807 12.8806 20.3907C13.6706 19.1907 16.3806 15.5407 20.0006 15.5407C23.6206 15.5407 26.3306 19.2007 27.1206 20.3907C26.3306 21.5907 23.6206 25.2407 20.0006 25.2407Z" fill="#37383C"/>
    <path d="M20 19.1907C19.3373 19.1907 18.8 19.728 18.8 20.3907C18.8 21.0535 19.3373 21.5907 20 21.5907C20.6628 21.5907 21.2001 21.0535 21.2001 20.3907C21.2001 19.728 20.6628 19.1907 20 19.1907Z" fill="#37383C"/>
    <path fill-rule="evenodd" clip-rule="evenodd" d="M16.45 20.3908C16.45 22.3514 18.0393 23.9408 20 23.9408C20.9415 23.9408 21.8444 23.5668 22.5102 22.901C23.1759 22.2353 23.5499 21.3323 23.5499 20.3908C23.5499 18.4302 21.9606 16.8408 20 16.8408C18.0393 16.8408 16.45 18.4302 16.45 20.3908ZM18.1017 19.6683C18.4158 18.8961 19.1663 18.391 20 18.3908C21.1129 18.3905 22.0227 19.2782 22.0499 20.3908C22.0702 21.2242 21.5839 21.9869 20.8197 22.32C20.0555 22.6531 19.1657 22.4903 18.569 21.9081C17.9723 21.326 17.7875 20.4405 18.1017 19.6683Z" fill="#37383C"/>
  </g>
  <defs>
    <clipPath id="clip0_500_1874">
      <rect width="40" height="40" fill="white" transform="translate(0 0.390625)"/>
    </clipPath>
  </defs>
</svg>