<svg xmlns="http://www.w3.org/2000/svg" width="40" height="41" viewBox="0 0 40 41" fill="none">
  <g clip-path="url(#clip0_500_1882)">
    <path d="M34 0.390625H6C2.68629 0.390625 0 3.07692 0 6.39062V34.3906C0 37.7043 2.68629 40.3906 6 40.3906H34C37.3137 40.3906 40 37.7043 40 34.3906V6.39062C40 3.07692 37.3137 0.390625 34 0.390625Z" fill="#E9E9E9"/>
    <path fill-rule="evenodd" clip-rule="evenodd" d="M14 29.1406H26C27.5188 29.1406 28.75 27.9094 28.75 26.3906V14.3906C28.75 12.8718 27.5188 11.6406 26 11.6406H14C12.4812 11.6406 11.25 12.8718 11.25 14.3906V26.3906C11.25 27.9094 12.4812 29.1406 14 29.1406ZM12.75 14.3906C12.75 13.7002 13.3096 13.1406 14 13.1406H26C26.6904 13.1406 27.25 13.7002 27.25 14.3906V26.3906C27.25 27.081 26.6904 27.6406 26 27.6406H14C13.3096 27.6406 12.75 27.081 12.75 26.3906V14.3906Z" fill="black"/>
    <path d="M16 24.7407H15.2C14.7857 24.7407 14.45 24.4049 14.45 23.9907C14.45 23.5765 14.7857 23.2407 15.2 23.2407H16C16.4142 23.2407 16.75 23.5765 16.75 23.9907C16.75 24.4049 16.4142 24.7407 16 24.7407Z" fill="black"/>
    <path d="M24.7994 24.7407H18.3994C17.9852 24.7407 17.6494 24.4049 17.6494 23.9907C17.6494 23.5765 17.9852 23.2407 18.3994 23.2407H24.7994C25.2136 23.2407 25.5494 23.5765 25.5494 23.9907C25.5494 24.4049 25.2136 24.7407 24.7994 24.7407Z" fill="black"/>
    <path d="M16 22.3906H15.2C14.7857 22.3906 14.45 22.0548 14.45 21.6406C14.45 21.2264 14.7857 20.8906 15.2 20.8906H16C16.4142 20.8906 16.75 21.2264 16.75 21.6406C16.75 22.0548 16.4142 22.3906 16 22.3906Z" fill="black"/>
    <path d="M24.7994 22.3906H18.3994C17.9852 22.3906 17.6494 22.0548 17.6494 21.6406C17.6494 21.2264 17.9852 20.8906 18.3994 20.8906H24.7994C25.2136 20.8906 25.5494 21.2264 25.5494 21.6406C25.5494 22.0548 25.2136 22.3906 24.7994 22.3906Z" fill="black"/>
    <path d="M16 19.9407H15.2C14.7857 19.9407 14.45 19.605 14.45 19.1907C14.45 18.7765 14.7857 18.4407 15.2 18.4407H16C16.4142 18.4407 16.75 18.7765 16.75 19.1907C16.75 19.605 16.4142 19.9407 16 19.9407Z" fill="black"/>
    <path d="M24.7994 19.9407H18.3994C17.9852 19.9407 17.6494 19.605 17.6494 19.1907C17.6494 18.7765 17.9852 18.4407 18.3994 18.4407H24.7994C25.2136 18.4407 25.5494 18.7765 25.5494 19.1907C25.5494 19.605 25.2136 19.9407 24.7994 19.9407Z" fill="black"/>
    <path d="M16 17.5405H15.2C14.7857 17.5405 14.45 17.2047 14.45 16.7905C14.45 16.3763 14.7857 16.0405 15.2 16.0405H16C16.4142 16.0405 16.75 16.3763 16.75 16.7905C16.75 17.2047 16.4142 17.5405 16 17.5405Z" fill="black"/>
    <path d="M24.7994 17.5405H18.3994C17.9852 17.5405 17.6494 17.2047 17.6494 16.7905C17.6494 16.3763 17.9852 16.0405 18.3994 16.0405H24.7994C25.2136 16.0405 25.5494 16.3763 25.5494 16.7905C25.5494 17.2047 25.2136 17.5405 24.7994 17.5405Z" fill="black"/>
  </g>
  <defs>
    <clipPath id="clip0_500_1882">
      <rect width="40" height="40" fill="white" transform="translate(0 0.390625)"/>
    </clipPath>
  </defs>
</svg>