<svg xmlns="http://www.w3.org/2000/svg" width="20" height="20" viewBox="0 0 20 20" fill="none">
  <path d="M9.0625 13.75C9.0625 13.9158 8.99665 14.0747 8.87944 14.1919C8.76223 14.3092 8.60326 14.375 8.4375 14.375H6.25C6.08424 14.375 5.92527 14.3092 5.80806 14.1919C5.69085 14.0747 5.625 13.9158 5.625 13.75C5.625 13.5842 5.69085 13.4253 5.80806 13.3081C5.92527 13.1908 6.08424 13.125 6.25 13.125H8.4375C8.60326 13.125 8.76223 13.1908 8.87944 13.3081C8.99665 13.4253 9.0625 13.5842 9.0625 13.75ZM13.75 13.125H11.5625C11.3967 13.125 11.2378 13.1908 11.1206 13.3081C11.0033 13.4253 10.9375 13.5842 10.9375 13.75C10.9375 13.9158 11.0033 14.0747 11.1206 14.1919C11.2378 14.3092 11.3967 14.375 11.5625 14.375H13.75C13.9158 14.375 14.0747 14.3092 14.1919 14.1919C14.3092 14.0747 14.375 13.9158 14.375 13.75C14.375 13.5842 14.3092 13.4253 14.1919 13.3081C14.0747 13.1908 13.9158 13.125 13.75 13.125ZM19.375 16.875C19.375 17.0408 19.3092 17.1997 19.1919 17.3169C19.0747 17.4342 18.9158 17.5 18.75 17.5H1.25C1.08424 17.5 0.925268 17.4342 0.808058 17.3169C0.690848 17.1997 0.625 17.0408 0.625 16.875C0.625 16.7092 0.690848 16.5503 0.808058 16.4331C0.925268 16.3158 1.08424 16.25 1.25 16.25H2.5V6.875C2.5 6.75893 2.53232 6.64515 2.59334 6.54642C2.65436 6.44768 2.74168 6.36789 2.84549 6.31598C2.94931 6.26407 3.06553 6.2421 3.18113 6.25253C3.29673 6.26295 3.40714 6.30536 3.5 6.375L7.5 9.375V6.875C7.5 6.75893 7.53232 6.64515 7.59334 6.54642C7.65437 6.44768 7.74168 6.36789 7.84549 6.31598C7.94931 6.26407 8.06553 6.2421 8.18113 6.25253C8.29673 6.26295 8.40714 6.30536 8.5 6.375L11.5266 8.64453L12.4297 2.32344C12.4734 2.02606 12.6223 1.75422 12.8494 1.55726C13.0765 1.3603 13.3666 1.25129 13.6672 1.25H15.0828C15.3834 1.25129 15.6735 1.3603 15.9006 1.55726C16.1277 1.75422 16.2766 2.02606 16.3203 2.32344L17.4922 10.5367C17.4922 10.5367 17.4984 10.5977 17.4984 10.625V16.25H18.7484C18.8306 16.2498 18.9121 16.2658 18.9881 16.2971C19.0641 16.3284 19.1332 16.3744 19.1914 16.4325C19.2496 16.4906 19.2958 16.5595 19.3273 16.6355C19.3588 16.7114 19.375 16.7928 19.375 16.875ZM12.6672 9.5L13.3336 10H16.1547L15.0828 2.5H13.6672L12.6672 9.5ZM3.75 16.25H16.25V11.25H13.125C12.9898 11.25 12.8582 11.2061 12.75 11.125L11.625 10.2812L8.75 8.125V10.625C8.75 10.7411 8.71768 10.8548 8.65666 10.9536C8.59563 11.0523 8.50832 11.1321 8.40451 11.184C8.30069 11.2359 8.18447 11.2579 8.06887 11.2475C7.95327 11.2371 7.84286 11.1946 7.75 11.125L3.75 8.125V16.25Z" fill="#1F8505"/>
</svg>