<svg xmlns="http://www.w3.org/2000/svg" width="21" height="20" viewBox="0 0 21 20" fill="none">
  <path d="M14.0836 16.8749C14.0836 17.0407 14.0177 17.1996 13.9005 17.3168C13.7833 17.4341 13.6243 17.4999 13.4586 17.4999H2.20858C2.04282 17.4999 1.88385 17.4341 1.76664 17.3168C1.64943 17.1996 1.58358 17.0407 1.58358 16.8749C1.58358 16.7091 1.64943 16.5502 1.76664 16.433C1.88385 16.3158 2.04282 16.2499 2.20858 16.2499H13.4586C13.6243 16.2499 13.7833 16.3158 13.9005 16.433C14.0177 16.5502 14.0836 16.7091 14.0836 16.8749ZM19.6976 7.27725C19.6813 7.36424 19.6466 7.44676 19.596 7.51935C19.5454 7.59195 19.4799 7.65296 19.4039 7.69834L7.88748 14.5733C7.40743 14.8549 6.86117 15.0037 6.30467 15.0046C5.51195 15.0037 4.74953 14.6999 4.17342 14.1554L4.16405 14.146L1.3492 11.3905C1.20027 11.2491 1.08849 11.0732 1.02373 10.8783C0.958966 10.6833 0.94323 10.4755 0.977909 10.2731C1.01259 10.0706 1.09661 9.87985 1.22255 9.71761C1.34849 9.55537 1.51247 9.42667 1.69998 9.34287L1.93436 9.22803C2.08237 9.15536 2.2531 9.14413 2.40936 9.19678L4.61717 9.94209L6.19295 8.98897L4.48748 7.3335C4.33411 7.1922 4.21852 7.01476 4.15126 6.81737C4.08399 6.61997 4.06718 6.40888 4.10236 6.20332C4.13754 5.99777 4.22359 5.80428 4.35267 5.64048C4.48175 5.47669 4.64976 5.34779 4.84139 5.26553L4.86639 5.25537L5.42498 5.04365C5.56582 4.99114 5.72087 4.99114 5.8617 5.04365L10.0758 6.59209L14.1047 4.18741C14.7467 3.80529 15.5048 3.667 16.2404 3.79782C16.976 3.92865 17.64 4.31985 18.1109 4.89991L18.1203 4.91162L19.5765 6.77803C19.6309 6.84791 19.6699 6.92856 19.6908 7.01462C19.7116 7.10069 19.714 7.19021 19.6976 7.27725ZM18.1555 6.98819L17.1398 5.68584C16.8571 5.34003 16.4598 5.10712 16.02 5.02941C15.5801 4.95171 15.127 5.03438 14.743 5.26241L10.4617 7.81866C10.3815 7.8662 10.2918 7.89534 10.199 7.90399C10.1061 7.91264 10.0126 7.90057 9.92498 7.86866L5.64608 6.29522L5.33358 6.41475L5.34998 6.43037L7.64373 8.65616C7.71224 8.72272 7.76457 8.80409 7.79672 8.89403C7.82887 8.98398 7.83998 9.08009 7.82919 9.17499C7.8184 9.2699 7.78601 9.36106 7.73449 9.44149C7.68297 9.52193 7.61371 9.58948 7.53201 9.63897L5.01561 11.1616C4.93776 11.2086 4.8506 11.2381 4.76019 11.248C4.66978 11.2578 4.57832 11.2478 4.49217 11.2187L2.25233 10.4632L2.23748 10.471L2.20858 10.4843C2.21234 10.487 2.21575 10.4901 2.21873 10.4937L5.03123 13.2483C5.32475 13.5242 5.69974 13.6975 6.10002 13.7422C6.50031 13.787 6.90433 13.7009 7.25155 13.4968L18.1555 6.98819Z" fill="#1F8505"/>
</svg>