<svg xmlns="http://www.w3.org/2000/svg" width="21" height="20" viewBox="0 0 21 20" fill="none">
  <path d="M10.6665 6.875C10.0484 6.875 9.44425 7.05828 8.93035 7.40166C8.41644 7.74504 8.0159 8.2331 7.77938 8.80411C7.54286 9.37513 7.48097 10.0035 7.60155 10.6097C7.72213 11.2158 8.01976 11.7727 8.4568 12.2097C8.89383 12.6467 9.45066 12.9444 10.0568 13.065C10.663 13.1855 11.2914 13.1236 11.8624 12.8871C12.4334 12.6506 12.9215 12.2501 13.2648 11.7362C13.6082 11.2223 13.7915 10.6181 13.7915 10C13.7915 9.1712 13.4623 8.37634 12.8762 7.79029C12.2902 7.20424 11.4953 6.875 10.6665 6.875ZM10.6665 11.875C10.2957 11.875 9.93315 11.765 9.62481 11.559C9.31647 11.353 9.07614 11.0601 8.93423 10.7175C8.79232 10.3749 8.75518 9.99792 8.82753 9.63421C8.89988 9.27049 9.07845 8.9364 9.34068 8.67417C9.6029 8.41195 9.937 8.23337 10.3007 8.16103C10.6644 8.08868 11.0414 8.12581 11.384 8.26773C11.7266 8.40964 12.0195 8.64996 12.2255 8.95831C12.4315 9.26665 12.5415 9.62916 12.5415 10C12.5415 10.4973 12.344 10.9742 11.9923 11.3258C11.6407 11.6775 11.1638 11.875 10.6665 11.875ZM19.4165 4.375H1.9165C1.75074 4.375 1.59177 4.44085 1.47456 4.55806C1.35735 4.67527 1.2915 4.83424 1.2915 5V15C1.2915 15.1658 1.35735 15.3247 1.47456 15.4419C1.59177 15.5592 1.75074 15.625 1.9165 15.625H19.4165C19.5823 15.625 19.7412 15.5592 19.8584 15.4419C19.9757 15.3247 20.0415 15.1658 20.0415 15V5C20.0415 4.83424 19.9757 4.67527 19.8584 4.55806C19.7412 4.44085 19.5823 4.375 19.4165 4.375ZM15.7954 14.375H5.5376C5.32776 13.6653 4.9437 13.0194 4.4204 12.4961C3.8971 11.9728 3.25119 11.5887 2.5415 11.3789V8.62109C3.25119 8.41125 3.8971 8.02719 4.4204 7.50389C4.9437 6.98059 5.32776 6.33468 5.5376 5.625H15.7954C16.0052 6.33468 16.3893 6.98059 16.9126 7.50389C17.4359 8.02719 18.0818 8.41125 18.7915 8.62109V11.3789C18.0818 11.5887 17.4359 11.9728 16.9126 12.4961C16.3893 13.0194 16.0052 13.6653 15.7954 14.375ZM18.7915 7.29453C18.0418 6.97218 17.4443 6.37466 17.122 5.625H18.7915V7.29453ZM4.21104 5.625C3.88869 6.37466 3.29116 6.97218 2.5415 7.29453V5.625H4.21104ZM2.5415 12.7055C3.29116 13.0278 3.88869 13.6253 4.21104 14.375H2.5415V12.7055ZM17.122 14.375C17.4443 13.6253 18.0418 13.0278 18.7915 12.7055V14.375H17.122Z" fill="#1F8505"/>
</svg>