<svg xmlns="http://www.w3.org/2000/svg" width="40" height="41" viewBox="0 0 40 41" fill="none">
  <g clip-path="url(#clip0_500_1896)">
    <path d="M34 0.390625H6C2.68629 0.390625 0 3.07692 0 6.39062V34.3906C0 37.7043 2.68629 40.3906 6 40.3906H34C37.3137 40.3906 40 37.7043 40 34.3906V6.39062C40 3.07692 37.3137 0.390625 34 0.390625Z" fill="#E9E9E9"/>
    <path d="M23.2906 24.7988C23.1466 24.8655 22.9887 24.8969 22.8302 24.8906H17.2102C17.0516 24.8969 16.8937 24.8655 16.7497 24.7988C16.6057 24.7321 16.4796 24.6321 16.3819 24.507C16.2842 24.3819 16.2176 24.2354 16.1878 24.0795C16.1579 23.9236 16.1656 23.7629 16.2102 23.6106C16.478 22.8177 16.9877 22.1288 17.6676 21.6408C18.3475 21.1529 19.1633 20.8905 20.0002 20.8906C20.8438 20.8821 21.6686 21.1406 22.3565 21.6291C23.0444 22.1176 23.5602 22.8112 23.8302 23.6106C23.8747 23.7629 23.8824 23.9236 23.8525 24.0795C23.8227 24.2354 23.7561 24.3819 23.6584 24.507C23.5607 24.6321 23.4346 24.7321 23.2906 24.7988Z" stroke="#2A2A2F" stroke-width="1.5" stroke-linecap="round" stroke-linejoin="round"/>
    <path d="M20 19.8906C21.1046 19.8906 22 18.9952 22 17.8906C22 16.786 21.1046 15.8906 20 15.8906C18.8954 15.8906 18 16.786 18 17.8906C18 18.9952 18.8954 19.8906 20 19.8906Z" stroke="#2A2A2F" stroke-width="1.5" stroke-linecap="round" stroke-linejoin="round"/>
    <path d="M26 12.3906H14C12.8954 12.3906 12 13.286 12 14.3906V26.3906C12 27.4952 12.8954 28.3906 14 28.3906H26C27.1046 28.3906 28 27.4952 28 26.3906V14.3906C28 13.286 27.1046 12.3906 26 12.3906Z" stroke="#2A2A2F" stroke-width="1.5" stroke-linecap="round" stroke-linejoin="round"/>
  </g>
  <defs>
    <clipPath id="clip0_500_1896">
      <rect width="40" height="40" fill="white" transform="translate(0 0.390625)"/>
    </clipPath>
  </defs>
</svg>