<svg xmlns="http://www.w3.org/2000/svg" width="24" height="25" viewBox="0 0 24 25" fill="none">
  <path d="M12.1899 2.77058C10.1018 2.72218 8.05769 3.3748 6.38392 4.62424C4.71015 5.87367 3.50326 7.64788 2.95595 9.66358C2.90095 9.67658 3.00895 9.64358 2.95595 9.66358C-0.919055 12.2146 -0.966054 17.7736 2.70895 20.6046L2.71495 20.5976L2.70795 20.6276C3.88183 21.5138 5.31414 21.9901 6.78495 21.9836H11.9579L11.9879 22.0136H17.1799C23.8669 22.0666 26.5559 13.4086 21.0149 9.66358C20.5377 7.904 19.5573 6.32197 18.1939 5.11158L18.1509 5.15458L18.1569 5.10458C16.5052 3.64764 14.3919 2.82102 12.1899 2.77058ZM11.8319 6.91658C13.0759 6.87658 14.3499 7.28458 15.3179 8.06658C15.9136 8.56374 16.3901 9.18821 16.7124 9.89399C17.0346 10.5998 17.1944 11.3688 17.1799 12.1446V12.6626C20.7099 12.5926 20.7099 17.9246 17.1799 17.8556H11.9869L11.9789 17.8646V17.8246H6.78495C6.41698 17.8246 6.05324 17.7462 5.71795 17.5946C5.33539 17.4214 5.00155 17.1579 4.74313 16.8269C4.4847 16.4959 4.31041 16.1072 4.23518 15.694C4.15995 15.2809 4.18604 14.8556 4.3112 14.4548C4.43636 14.0539 4.65687 13.6894 4.95382 13.3924C5.25076 13.0955 5.61529 12.875 6.01615 12.7498C6.41701 12.6247 6.84224 12.5986 7.25539 12.6738C7.66854 12.749 8.05729 12.9233 8.3883 13.1818C8.71932 13.4402 8.98272 13.775 9.15595 14.1576L12.1689 11.1456C11.1678 9.84049 9.72428 8.9461 8.10995 8.63058C8.12794 8.62058 8.14995 8.60458 8.16395 8.60758C8.63147 8.09464 9.19719 7.68076 9.82759 7.39047C10.458 7.10017 11.1403 6.93936 11.8339 6.91758L11.8319 6.91658Z" fill="#3B3D3B"/>
</svg>
