<svg xmlns="http://www.w3.org/2000/svg" width="40" height="41" viewBox="0 0 40 41" fill="none">
  <g clip-path="url(#clip0_500_1841)">
    <path d="M34 0.390625H6C2.68629 0.390625 0 3.07692 0 6.39062V34.3906C0 37.7043 2.68629 40.3906 6 40.3906H34C37.3137 40.3906 40 37.7043 40 34.3906V6.39062C40 3.07692 37.3137 0.390625 34 0.390625Z" fill="#E9E9E9"/>
    <path d="M12.115 20.6889V28.5724H8.33301V10.3906H12.0085V17.3419H12.1683C12.476 16.537 12.9732 15.9067 13.6597 15.451C14.3463 14.9893 15.2074 14.7585 16.2432 14.7585C17.1902 14.7585 18.0158 14.9656 18.7201 15.3799C19.4303 15.7883 19.9808 16.3772 20.3714 17.1466C20.7679 17.9101 20.9632 18.8245 20.9573 19.8899V28.5724H17.1754V20.5646C17.1813 19.7242 16.9682 19.0702 16.5362 18.6026C16.11 18.135 15.5122 17.9013 14.7428 17.9013C14.2279 17.9013 13.7722 18.0107 13.3756 18.2297C12.985 18.4487 12.6773 18.7683 12.4524 19.1885C12.2334 19.6028 12.1209 20.103 12.115 20.6889Z" fill="black"/>
    <path d="M31.1876 14.936V17.7769H22.9756V14.936H31.1876ZM24.84 11.6689H28.6219V24.382C28.6219 24.7312 28.6752 25.0034 28.7817 25.1987C28.8883 25.3881 29.0362 25.5213 29.2256 25.5982C29.4209 25.6752 29.6458 25.7137 29.9003 25.7137C30.0779 25.7137 30.2554 25.6989 30.433 25.6693C30.6106 25.6338 30.7467 25.6071 30.8414 25.5894L31.4362 28.4036C31.2468 28.4628 30.9805 28.5309 30.6372 28.6078C30.2939 28.6907 29.8767 28.741 29.3854 28.7588C28.474 28.7943 27.675 28.6729 26.9884 28.3948C26.3078 28.1166 25.7781 27.6845 25.3993 27.0986C25.0205 26.5127 24.834 25.7728 24.84 24.8791V11.6689Z" fill="black"/>
  </g>
  <defs>
    <clipPath id="clip0_500_1841">
      <rect width="40" height="40" fill="white" transform="translate(0 0.390625)"/>
    </clipPath>
  </defs>
</svg>