<svg xmlns="http://www.w3.org/2000/svg" width="12" height="15" viewBox="0 0 14 17" fill="none">
  <path d="M10.5605 0.390625C9.46648 0.467625 8.43698 0.936225 7.66048 1.71062C7.30988 2.05632 7.03878 2.47432 6.86608 2.93542C6.69348 3.39652 6.62328 3.88962 6.66048 4.38062C7.20588 4.39642 7.74848 4.29583 8.25198 4.08543C8.75548 3.87503 9.20838 3.55983 9.58048 3.16063C9.93208 2.79563 10.2015 2.35953 10.3705 1.88173C10.5396 1.40403 10.6043 0.895525 10.5605 0.390625ZM10.0605 4.39062C8.74048 4.39062 7.80048 5.11063 7.18048 5.11063C6.56048 5.11063 5.62048 4.39062 4.54048 4.39062C3.86588 4.41082 3.20818 4.60572 2.63148 4.95632C2.05478 5.30692 1.57898 5.80113 1.25048 6.39062C-0.14952 8.81063 0.88048 12.3906 2.25048 14.3906C2.91048 15.3906 3.71048 16.3906 4.79048 16.3906C5.87048 16.3906 6.11048 15.7906 7.31048 15.7906C8.51048 15.7906 8.87048 16.3906 9.95048 16.3906C11.0305 16.3906 11.6905 15.3906 12.3505 14.3906C12.8148 13.6989 13.1785 12.9447 13.4305 12.1506C12.8056 11.8774 12.2736 11.4287 11.899 10.8588C11.5244 10.2889 11.3235 9.62252 11.3205 8.94062C11.3285 8.33672 11.4896 7.74483 11.7886 7.22013C12.0877 6.69543 12.515 6.25522 13.0305 5.94062C12.7055 5.48162 12.2796 5.10333 11.7855 4.83463C11.2915 4.56593 10.7424 4.41402 10.1805 4.39062H10.0605Z" fill="#2A2A2F"/>
</svg>