<svg xmlns="http://www.w3.org/2000/svg" width="19" height="18" viewBox="0 0 19 18" fill="none">
  <path d="M16.9819 8.03949L10.2319 1.28949C10.1797 1.23719 10.1176 1.1957 10.0493 1.16739C9.98106 1.13908 9.90786 1.12451 9.83394 1.12451C9.76002 1.12451 9.68682 1.13908 9.61854 1.16739C9.55025 1.1957 9.48821 1.23719 9.43597 1.28949L2.68597 8.03949C2.60721 8.11815 2.55357 8.21842 2.53183 8.32759C2.51009 8.43677 2.52123 8.54994 2.56384 8.65277C2.60645 8.75561 2.67862 8.84349 2.7712 8.9053C2.86378 8.9671 2.97262 9.00004 3.08394 8.99995H5.89644V10.6875C5.89644 10.8366 5.9557 10.9797 6.06119 11.0852C6.16668 11.1907 6.30975 11.25 6.45894 11.25H13.2089C13.3581 11.25 13.5012 11.1907 13.6067 11.0852C13.7122 10.9797 13.7714 10.8366 13.7714 10.6875V8.99995H16.5839C16.6953 9.00004 16.8041 8.9671 16.8967 8.9053C16.9893 8.84349 17.0614 8.75561 17.104 8.65277C17.1466 8.54994 17.1578 8.43677 17.136 8.32759C17.1143 8.21842 17.0607 8.11815 16.9819 8.03949ZM13.2089 7.87495C13.0598 7.87495 12.9167 7.93422 12.8112 8.03971C12.7057 8.1452 12.6464 8.28827 12.6464 8.43745V10.125H7.02144V8.43745C7.02144 8.28827 6.96218 8.1452 6.85669 8.03971C6.7512 7.93422 6.60812 7.87495 6.45894 7.87495H4.44167L9.83394 2.48269L15.2262 7.87495H13.2089ZM13.7714 15.1875C13.7714 15.3366 13.7122 15.4797 13.6067 15.5852C13.5012 15.6907 13.3581 15.75 13.2089 15.75H6.45894C6.30975 15.75 6.16668 15.6907 6.06119 15.5852C5.9557 15.4797 5.89644 15.3366 5.89644 15.1875C5.89644 15.0383 5.9557 14.8952 6.06119 14.7897C6.16668 14.6842 6.30975 14.625 6.45894 14.625H13.2089C13.3581 14.625 13.5012 14.6842 13.6067 14.7897C13.7122 14.8952 13.7714 15.0383 13.7714 15.1875ZM13.7714 12.9375C13.7714 13.0866 13.7122 13.2297 13.6067 13.3352C13.5012 13.4407 13.3581 13.5 13.2089 13.5H6.45894C6.30975 13.5 6.16668 13.4407 6.06119 13.3352C5.9557 13.2297 5.89644 13.0866 5.89644 12.9375C5.89644 12.7883 5.9557 12.6452 6.06119 12.5397C6.16668 12.4342 6.30975 12.375 6.45894 12.375H13.2089C13.3581 12.375 13.5012 12.4342 13.6067 12.5397C13.7122 12.6452 13.7714 12.7883 13.7714 12.9375Z" fill="#CF343D"/>
  <path d="M13.2089 7.87495C13.0598 7.87495 12.9167 7.93422 12.8112 8.03971C12.7057 8.1452 12.6464 8.28827 12.6464 8.43745V10.125H7.02144V8.43745C7.02144 8.28827 6.96218 8.1452 6.85669 8.03971C6.7512 7.93422 6.60812 7.87495 6.45894 7.87495H4.44167L9.83394 2.48269L15.2262 7.87495H13.2089Z" fill="#CF343D"/>
</svg>