<svg xmlns="http://www.w3.org/2000/svg" width="18" height="16" viewBox="0 0 18 16" fill="none">
  <path d="M1.70714 2.96045C1.70714 2.79469 1.77298 2.63572 1.89019 2.51851C2.0074 2.4013 2.16638 2.33545 2.33214 2.33545H3.58214V1.08545C3.58214 0.919689 3.64798 0.760718 3.76519 0.643508C3.8824 0.526297 4.04138 0.460449 4.20714 0.460449C4.3729 0.460449 4.53187 0.526297 4.64908 0.643508C4.76629 0.760718 4.83214 0.919689 4.83214 1.08545V2.33545H6.08214C6.2479 2.33545 6.40687 2.4013 6.52408 2.51851C6.64129 2.63572 6.70714 2.79469 6.70714 2.96045C6.70714 3.12621 6.64129 3.28518 6.52408 3.40239C6.40687 3.5196 6.2479 3.58545 6.08214 3.58545H4.83214V4.83545C4.83214 5.00121 4.76629 5.16018 4.64908 5.27739C4.53187 5.3946 4.3729 5.46045 4.20714 5.46045C4.04138 5.46045 3.8824 5.3946 3.76519 5.27739C3.64798 5.16018 3.58214 5.00121 3.58214 4.83545V3.58545H2.33214C2.16638 3.58545 2.0074 3.5196 1.89019 3.40239C1.77298 3.28518 1.70714 3.12621 1.70714 2.96045ZM12.3321 12.9604H11.7071V12.3354C11.7071 12.1697 11.6413 12.0107 11.5241 11.8935C11.4069 11.7763 11.2479 11.7104 11.0821 11.7104C10.9164 11.7104 10.7574 11.7763 10.6402 11.8935C10.523 12.0107 10.4571 12.1697 10.4571 12.3354V12.9604H9.83214C9.66638 12.9604 9.5074 13.0263 9.39019 13.1435C9.27298 13.2607 9.20714 13.4197 9.20714 13.5854C9.20714 13.7512 9.27298 13.9102 9.39019 14.0274C9.5074 14.1446 9.66638 14.2104 9.83214 14.2104H10.4571V14.8354C10.4571 15.0012 10.523 15.1602 10.6402 15.2774C10.7574 15.3946 10.9164 15.4604 11.0821 15.4604C11.2479 15.4604 11.4069 15.3946 11.5241 15.2774C11.6413 15.1602 11.7071 15.0012 11.7071 14.8354V14.2104H12.3321C12.4979 14.2104 12.6569 14.1446 12.7741 14.0274C12.8913 13.9102 12.9571 13.7512 12.9571 13.5854C12.9571 13.4197 12.8913 13.2607 12.7741 13.1435C12.6569 13.0263 12.4979 12.9604 12.3321 12.9604ZM16.7071 9.21045H15.4571V7.96045C15.4571 7.79469 15.3913 7.63572 15.2741 7.51851C15.1569 7.4013 14.9979 7.33545 14.8321 7.33545C14.6664 7.33545 14.5074 7.4013 14.3902 7.51851C14.273 7.63572 14.2071 7.79469 14.2071 7.96045V9.21045H12.9571C12.7914 9.21045 12.6324 9.2763 12.5152 9.39351C12.398 9.51072 12.3321 9.66969 12.3321 9.83545C12.3321 10.0012 12.398 10.1602 12.5152 10.2774C12.6324 10.3946 12.7914 10.4604 12.9571 10.4604H14.2071V11.7104C14.2071 11.8762 14.273 12.0352 14.3902 12.1524C14.5074 12.2696 14.6664 12.3354 14.8321 12.3354C14.9979 12.3354 15.1569 12.2696 15.2741 12.1524C15.3913 12.0352 15.4571 11.8762 15.4571 11.7104V10.4604H16.7071C16.8729 10.4604 17.0319 10.3946 17.1491 10.2774C17.2663 10.1602 17.3321 10.0012 17.3321 9.83545C17.3321 9.66969 17.2663 9.51072 17.1491 9.39351C17.0319 9.2763 16.8729 9.21045 16.7071 9.21045ZM15.0907 4.21045L4.20714 15.094C3.97274 15.3283 3.65492 15.4599 3.32354 15.4599C2.99216 15.4599 2.67434 15.3283 2.43995 15.094L0.82276 13.4784C0.706657 13.3623 0.614557 13.2245 0.551721 13.0729C0.488885 12.9212 0.456543 12.7586 0.456543 12.5944C0.456543 12.4303 0.488885 12.2677 0.551721 12.116C0.614557 11.9643 0.706657 11.8265 0.82276 11.7104L11.7071 0.826855C11.8232 0.710752 11.961 0.618652 12.1127 0.555816C12.2644 0.49298 12.4269 0.460638 12.5911 0.460638C12.7553 0.460638 12.9179 0.49298 13.0695 0.555816C13.2212 0.618652 13.359 0.710752 13.4751 0.826855L15.0907 2.44248C15.2068 2.55856 15.2989 2.69637 15.3618 2.84804C15.4246 2.99972 15.4569 3.16229 15.4569 3.32646C15.4569 3.49064 15.4246 3.65321 15.3618 3.80488C15.2989 3.95656 15.2068 4.09437 15.0907 4.21045ZM10.8228 6.71045L9.20714 5.09404L1.70714 12.594L3.32276 14.2104L10.8228 6.71045ZM14.2071 3.32686L12.5907 1.71045L10.0907 4.21045L11.7071 5.82686L14.2071 3.32686Z" fill="#6E726E"/>
</svg>