<svg xmlns="http://www.w3.org/2000/svg" width="40" height="41" viewBox="0 0 40 41" fill="none">
  <g clip-path="url(#clip0_500_1817)">
    <path d="M34 0.390625H6C2.68629 0.390625 0 3.07692 0 6.39062V34.3906C0 37.7043 2.68629 40.3906 6 40.3906H34C37.3137 40.3906 40 37.7043 40 34.3906V6.39062C40 3.07692 37.3137 0.390625 34 0.390625Z" fill="#E9E9E9"/>
    <path d="M11 23.1082V17.9365C11 17.6735 11.2139 17.4631 11.4746 17.4631H17.3135C17.5771 17.4631 17.7881 17.6764 17.7881 17.9365V23.1082C17.7881 23.3712 17.5742 23.5816 17.3135 23.5816H11.4746C11.2109 23.5816 11 23.3683 11 23.1082Z" fill="#2A2A2F"/>
    <path opacity="0.6" d="M17.791 26.8805V32.1809C17.791 32.4409 17.5801 32.6542 17.3193 32.6542L11.4805 32.7068C11.2168 32.7097 11 32.4964 11 32.2335V26.8776C11 26.6146 11.2139 26.4043 11.4746 26.4043H17.3135C17.5771 26.4072 17.791 26.6205 17.791 26.8805Z" fill="#2A2A2F"/>
    <path d="M29 8.86397C29 8.601 28.7861 8.39062 28.5254 8.39062H27.5146H20.7998H17.791H11.4746C11.2109 8.39062 11 8.60392 11 8.86397V14.1613C11 14.4243 11.2139 14.6347 11.4746 14.6347H20.7998H28.5225C28.7861 14.6347 28.9971 14.4214 28.9971 14.1613V8.86397H29Z" fill="#2A2A2F"/>
    <path opacity="0.6" d="M29 17.9365C29 17.6735 28.7861 17.4631 28.5254 17.4631H27.5146H21.2744C21.0107 17.4631 20.7998 17.6764 20.7998 17.9365V23.1082C20.7998 23.3712 21.0137 23.5816 21.2744 23.5816H27.5117H28.5225C28.7861 23.5816 28.9971 23.3683 28.9971 23.1082V17.9365H29Z" fill="#2A2A2F"/>
  </g>
  <defs>
    <clipPath id="clip0_500_1817">
      <rect width="40" height="40" fill="white" transform="translate(0 0.390625)"/>
    </clipPath>
  </defs>
</svg>