<svg xmlns="http://www.w3.org/2000/svg" width="26" height="27" viewBox="0 0 26 27" fill="none">
  <path d="M13 0.390625C5.81831 0.390625 0 6.20894 0 13.3906C0 20.5723 5.81831 26.3906 13 26.3906C20.1817 26.3906 26 20.5723 26 13.3906C26 6.20894 20.1817 0.390625 13 0.390625ZM20.1346 16.2685C18.5266 16.2685 17.2185 14.9612 17.2185 13.3524C17.2185 11.7437 18.5258 10.4364 20.1346 10.4364C21.7425 10.4364 23.0457 11.7437 23.0457 13.3524C23.0457 14.9612 21.7384 16.2685 20.1346 16.2685ZM8.15912 16.2555C8.04898 16.2534 7.94414 16.2078 7.86744 16.1288L5.65419 13.9196L3.43281 16.1369C3.35834 16.2108 3.25826 16.2533 3.15331 16.2555C3.07418 16.2548 2.99703 16.2307 2.93156 16.1862C2.8661 16.1417 2.81523 16.0789 2.78536 16.0056C2.75549 15.9324 2.74795 15.8519 2.76369 15.7743C2.77943 15.6968 2.81774 15.6256 2.87381 15.5697L5.083 13.3484L2.87788 11.1311C2.83775 11.0958 2.80593 11.0521 2.78472 11.003C2.7635 10.954 2.75342 10.9009 2.75519 10.8475C2.75519 10.6273 2.93313 10.4542 3.15331 10.4542C3.25894 10.4542 3.35644 10.4924 3.43281 10.5688L5.65906 12.7861L7.87638 10.5688C7.9137 10.5319 7.95799 10.5028 8.00667 10.4831C8.05534 10.4634 8.10744 10.4536 8.15994 10.4542C8.38825 10.4542 8.56619 10.6322 8.56619 10.8475C8.56619 10.9572 8.53694 11.0547 8.45163 11.127L6.22538 13.3573L8.45163 15.5787C8.50713 15.6344 8.54484 15.7054 8.55996 15.7826C8.57509 15.8598 8.56695 15.9398 8.53658 16.0124C8.5062 16.085 8.45497 16.1469 8.38936 16.1903C8.32376 16.2337 8.24674 16.2567 8.16806 16.2563L8.15912 16.2555ZM16.8423 11.283C15.9786 11.3886 15.886 11.7949 15.886 12.8024V15.82C15.886 16.0402 15.7081 16.2181 15.4928 16.2181C15.3869 16.2177 15.2855 16.1758 15.2102 16.1013C15.135 16.0268 15.0921 15.9258 15.0906 15.82V10.9158C15.0906 10.6956 15.2644 10.5176 15.4838 10.5176C15.5729 10.5188 15.659 10.5505 15.7276 10.6075C15.7962 10.6644 15.8432 10.7431 15.8608 10.8304C16.1497 10.6083 16.5039 10.4878 16.8683 10.4876H16.9829C17.1901 10.4876 17.368 10.6655 17.368 10.8857C17.368 11.1059 17.1901 11.2668 16.9618 11.2749C16.9618 11.2749 16.8643 11.2749 16.7838 11.283H16.8423ZM13.4948 13.6701H9.34375C9.34375 13.6912 9.34781 13.7124 9.35188 13.7335C9.373 13.8481 9.39819 13.9618 9.44044 14.0674C9.64762 14.6427 10.27 15.4471 11.4213 15.4641C11.7607 15.4612 12.0945 15.377 12.3947 15.2188C12.623 15.0879 12.8221 14.9222 12.9659 14.7532C13.0122 14.6898 13.0634 14.6305 13.0967 14.5712C13.2917 14.3217 13.5322 14.3681 13.6809 14.4826C13.8588 14.6264 13.8759 14.9059 13.7272 15.1001L13.7101 15.1172C13.4818 15.4089 13.2405 15.6542 12.9651 15.8322C12.6896 16.0101 12.3939 16.1369 12.0851 16.2043C11.7292 16.3018 11.3872 16.3189 11.0313 16.2677C10.4479 16.1972 9.89945 15.9516 9.45826 15.5634C9.01707 15.1751 8.7038 14.6624 8.55969 14.0926C8.49542 13.8655 8.46262 13.6307 8.46219 13.3947C8.46219 12.4676 8.91963 11.5584 9.68094 11.0035C10.6372 10.3389 11.9405 10.2885 12.9309 10.9231C13.6126 11.3634 14.0522 12.0272 14.2131 12.8397C14.2935 13.2972 13.9847 13.7034 13.4176 13.7197L13.4948 13.6701ZM20.1346 11.2619C18.9792 11.2619 18.0399 12.1971 18.0399 13.3524C18.0399 14.5078 18.9792 15.4471 20.1346 15.4471C20.6893 15.4456 21.2207 15.2243 21.6126 14.8317C22.0044 14.439 22.2247 13.9071 22.2251 13.3524C22.2243 12.7979 22.0039 12.2662 21.6121 11.8737C21.2204 11.4812 20.6891 11.2597 20.1346 11.2578V11.2619ZM20.1346 14.0723C19.7364 14.0723 19.4106 13.7506 19.4106 13.3533C19.4106 12.9559 19.7364 12.6342 20.1346 12.6342C20.5327 12.6342 20.8585 12.9559 20.8585 13.3533C20.8585 13.7506 20.5327 14.0772 20.1346 14.0723ZM11.4262 11.2537C10.9574 11.2527 10.5017 11.4083 10.1313 11.6958C9.76098 11.9832 9.49724 12.3861 9.38194 12.8406V12.8747H13.4696C13.3598 12.4138 13.098 12.0032 12.7264 11.7092C12.3549 11.4151 11.8951 11.2547 11.4213 11.2537H11.4262Z" fill="#3B3D3B"/>
</svg>