<svg width="32" height="11" viewBox="0 0 32 11" fill="none" xmlns="http://www.w3.org/2000/svg">
<g clip-path="url(#clip0_560_7310)">
<path d="M32 2.52051V9.37927L30.95 10.3058V3.59395L32 2.52051Z" fill="#3B3D3B"/>
<path d="M25.1187 2.52616L24.0312 3.59395L24.0875 3.66175L30.9062 3.63915L30.9688 3.59395L32 2.52051L25.1187 2.52616Z" fill="#3B3D3B"/>
<path d="M24.0312 3.59399H30.9688V10.3115H24.0312V3.59399Z" fill="#3B3D3B"/>
<path d="M29.9123 6.01217C29.7748 5.70143 29.5686 5.41895 29.2998 5.17601C29.0436 4.93872 28.7561 4.75793 28.4311 4.63929C28.1123 4.52064 27.7686 4.4585 27.3936 4.4585C27.0186 4.4585 26.6686 4.52064 26.3498 4.63929C26.0248 4.75793 25.7373 4.93872 25.4811 5.17601C25.2123 5.41895 25.0123 5.70143 24.8748 6.01217C24.7373 6.3229 24.6748 6.66189 24.6748 7.03477C24.6748 7.39635 24.7436 7.73533 24.8811 8.05172C25.0186 8.3681 25.2186 8.65059 25.4873 8.89917C25.7373 9.13081 26.0248 9.30595 26.3436 9.4246C26.6623 9.54324 27.0186 9.60539 27.3998 9.60539C27.7686 9.60539 28.1123 9.54324 28.4311 9.4246C28.7498 9.30595 29.0436 9.13081 29.2998 8.89917C29.5686 8.65059 29.7748 8.3681 29.9123 8.05737C30.0498 7.74663 30.1186 7.402 30.1186 7.04042C30.1186 6.66189 30.0498 6.3229 29.9123 6.01217ZM28.4811 8.22686C28.2123 8.51499 27.8561 8.66189 27.3936 8.66189C26.9311 8.66189 26.5686 8.51499 26.2998 8.22686C26.0311 7.93872 25.8998 7.53759 25.8998 7.02912C25.8998 6.50934 26.0373 6.10821 26.2998 5.81443C26.5686 5.52064 26.9248 5.3794 27.3936 5.3794C27.8561 5.3794 28.2123 5.52629 28.4811 5.81443C28.7436 6.10821 28.8811 6.50934 28.8811 7.02912C28.8811 7.53759 28.7498 7.93872 28.4811 8.22686Z" fill="white"/>
<path d="M23.35 1.96118V1.99508L24.2375 8.15892L23.7188 9.45836L23.65 9.41316L22.7375 3.50355L22.7563 3.42446L23.3251 1.99508L23.35 1.96118Z" fill="#3B3D3B"/>
<path d="M16.5188 2.81994L23.35 1.96118L22.775 3.44141L22.6938 3.5205L16.3063 4.36796L16.3375 3.31146L16.5188 2.81994Z" fill="#3B3D3B"/>
<path d="M22.775 3.44141L23.7188 9.45836L16.9875 10.3115L16.0813 4.4979L16.475 4.22107L22.775 3.44141Z" fill="#3B3D3B"/>
<path d="M21.6309 4.5941C21.5996 4.40766 21.5309 4.26641 21.4184 4.17037C21.3246 4.09692 21.2121 4.05737 21.0809 4.05737C21.0496 4.05737 21.0121 4.05737 20.9746 4.06302C20.7996 4.08562 20.6684 4.15907 20.5871 4.27771C20.5246 4.36246 20.4996 4.4698 20.4996 4.5941C20.4996 4.63929 20.5059 4.69014 20.5121 4.74099L20.7559 6.30596L18.8184 6.56585L18.5746 5.00088C18.5434 4.82008 18.4746 4.67884 18.3621 4.5828C18.2684 4.5037 18.1559 4.46415 18.0309 4.46415C17.9996 4.46415 17.9684 4.46415 17.9371 4.4698C17.7559 4.4924 17.6184 4.56585 17.5309 4.68449C17.4684 4.76924 17.4434 4.87658 17.4434 5.00088C17.4434 5.04607 17.4496 5.09692 17.4559 5.15342L18.1184 9.22686C18.1496 9.4133 18.2184 9.55455 18.3434 9.65059C18.4371 9.72404 18.5496 9.75794 18.6871 9.75794C18.7246 9.75794 18.7621 9.75794 18.7996 9.75229C18.9684 9.72969 19.0934 9.65624 19.1746 9.5376C19.2309 9.45285 19.2559 9.35116 19.2559 9.23251C19.2559 9.18732 19.2496 9.13647 19.2434 9.08562L18.9746 7.47545L20.9121 7.21556L21.1809 8.82573C21.2121 9.01218 21.2809 9.15342 21.3996 9.24381C21.4934 9.31726 21.6059 9.35681 21.7371 9.35681C21.7684 9.35681 21.8059 9.35681 21.8434 9.35116C22.0184 9.32856 22.1496 9.25511 22.2309 9.13647C22.2871 9.05172 22.3184 8.95003 22.3184 8.82573C22.3184 8.78054 22.3121 8.72969 22.3059 8.67884L21.6309 4.5941Z" fill="white"/>
<path d="M10.125 0.390625L7.69373 5.61096L8.02498 7.90475L8.04373 7.8991L10.775 2.34543L10.7625 2.22678L10.175 0.464071L10.125 0.390625Z" fill="#3B3D3B"/>
<path d="M10.125 0.390625L10.7563 2.30588L10.7688 2.34543L16.7812 4.78046L16.8 4.76916L16.2875 2.93865L10.125 0.390625Z" fill="#3B3D3B"/>
<path d="M10.7563 2.30591L16.8 4.76918L14.0688 10.3681L8.02502 7.90478L10.7563 2.30591Z" fill="#3B3D3B"/>
<path d="M14.9688 5.22108C14.8375 4.9047 14.6562 4.63351 14.4187 4.40752C14.1812 4.18154 13.8937 4.00074 13.5562 3.8708C13.2187 3.74086 12.8813 3.67871 12.5375 3.67871H12.5188C12.1688 3.67871 11.825 3.75216 11.4875 3.88775C11.1313 4.02899 10.825 4.22108 10.5625 4.47532C10.3 4.72391 10.0875 5.02899 9.925 5.37928C9.7625 5.72391 9.675 6.07419 9.65625 6.41882V6.53747C9.65625 6.84255 9.7125 7.14199 9.83125 7.43577C9.95625 7.74651 10.1375 8.01204 10.375 8.23803C10.6125 8.46402 10.9063 8.64481 11.2563 8.77476C11.5875 8.9047 11.925 8.96685 12.2688 8.96685H12.275C12.6187 8.96685 12.9625 8.89905 13.3 8.76911C13.6562 8.62786 13.9688 8.43012 14.2312 8.17589C14.4937 7.9273 14.7125 7.62786 14.875 7.27758C15.0375 6.9273 15.125 6.58267 15.1438 6.23803V6.13634C15.15 5.8256 15.0938 5.52052 14.9688 5.22108ZM13.7625 6.8482C13.5375 7.33408 13.2313 7.66741 12.8625 7.8482C12.6625 7.94425 12.4562 7.9951 12.25 7.9951C12.0687 7.9951 11.875 7.95555 11.6812 7.8821C11.2562 7.71826 10.9938 7.45837 10.8813 7.08549C10.8438 6.9612 10.825 6.83125 10.825 6.69566C10.825 6.42447 10.9 6.12504 11.05 5.803C11.2813 5.30583 11.5875 4.96685 11.9563 4.78041C12.1563 4.67871 12.3625 4.63351 12.5688 4.63351C12.7563 4.63351 12.9438 4.67306 13.1438 4.74651C13.5625 4.91035 13.825 5.17024 13.9375 5.54312C13.975 5.66176 13.9937 5.79171 13.9937 5.9273C13.9937 6.20978 13.9187 6.51487 13.7625 6.8482Z" fill="white"/>
<path d="M7.21248 1.27759L8.19998 7.25499L7.74998 9.35668L7.68748 9.28324L6.72498 3.50923V3.39623L7.14998 1.37928L7.21248 1.27759Z" fill="#3B3D3B"/>
<path d="M0 4.36798L0.46875 2.25499L7.2125 1.27759L6.75625 3.43013V3.57137L0.08125 4.42448L0 4.36798Z" fill="#3B3D3B"/>
<path d="M6.75625 3.43018L7.75 9.35673L1.075 10.3002L0 4.36803L6.75625 3.43018Z" fill="#3B3D3B"/>
<path d="M6.0375 8.41314C5.9875 8.35664 5.9125 8.31709 5.825 8.28884C5.7375 8.2606 5.63125 8.2493 5.5 8.2493C5.38125 8.2493 5.24375 8.2606 5.09375 8.28319L3.33125 8.55438C3.35 8.43009 3.41875 8.2719 3.5375 8.07416C3.66875 7.85382 3.86875 7.58828 4.125 7.28319C4.2125 7.17585 4.28125 7.09675 4.33125 7.04026C4.3625 7.00071 4.4125 6.94986 4.475 6.87642C4.88125 6.39619 5.125 6.00636 5.225 5.70127C5.28125 5.52613 5.3125 5.35099 5.325 5.17585C5.33125 5.125 5.33125 5.0798 5.33125 5.03461C5.33125 4.91031 5.31875 4.78602 5.29375 4.66173C5.275 4.54873 5.24375 4.45834 5.2 4.38489C5.15625 4.31144 5.10625 4.25495 5.04375 4.22105C4.975 4.1815 4.86875 4.16455 4.7375 4.16455C4.63125 4.16455 4.5 4.17585 4.34375 4.19845L2.30625 4.51483C2.0625 4.55438 1.875 4.61653 1.7625 4.71822C1.66875 4.79732 1.625 4.89901 1.625 5.01201C1.625 5.04026 1.625 5.07416 1.63125 5.10805C1.6625 5.26625 1.75 5.37924 1.89375 5.43574C1.98125 5.46964 2.08125 5.48658 2.20625 5.48658C2.2875 5.48658 2.38125 5.48093 2.48125 5.46399L4.18125 5.1928C4.18125 5.22105 4.1875 5.2493 4.1875 5.2719C4.1875 5.36794 4.16875 5.46399 4.13125 5.55438C4.08125 5.68432 3.95625 5.86512 3.75 6.09675C3.69375 6.1589 3.60625 6.2606 3.4875 6.39054C3.025 6.89336 2.7 7.32274 2.5 7.67867C2.35625 7.92726 2.2625 8.16455 2.20625 8.40749C2.175 8.54873 2.15625 8.67867 2.15625 8.80862C2.15625 8.89901 2.1625 8.98941 2.18125 9.07415C2.20625 9.19845 2.2375 9.30014 2.28125 9.37924C2.325 9.45834 2.3875 9.52048 2.45625 9.55438C2.525 9.58828 2.61875 9.59958 2.75625 9.59958C2.925 9.59958 3.15625 9.57698 3.45 9.53178L5.3 9.24365C5.625 9.1928 5.85625 9.11935 5.9875 9.02331C6.09375 8.94421 6.15 8.83687 6.15 8.71257C6.15 8.67868 6.14375 8.64478 6.1375 8.61088C6.125 8.53743 6.09375 8.46964 6.0375 8.41314Z" fill="white"/>
</g>
<defs>
<clipPath id="clip0_560_7310">
<rect width="32" height="10" fill="white" transform="translate(0 0.390625)"/>
</clipPath>
</defs>
</svg>
