<svg width="23" height="36" viewBox="0 0 23 36" fill="none" xmlns="http://www.w3.org/2000/svg">
<path fill-rule="evenodd" clip-rule="evenodd" d="M6.52824 3.76257L0 7.52401L0.00069924 18.4466L0.00139848 29.3691L5.62383 32.6846L11.2463 36L16.8231 32.6846L22.4 29.3691L22.3942 22.8102L22.3883 16.2512L17.7493 13.6589L13.1103 11.0667L13.1035 5.53278C13.0998 2.48915 13.0876 -0.000613156 13.0766 1.13269e-07C13.0655 0.000613383 10.1188 1.69377 6.52824 3.76257ZM10.105 21.9047C10.0682 21.9377 3.05957 25.9367 2.99683 25.9605C2.96332 25.9733 2.95837 24.867 2.95948 17.5932L2.96072 9.21125L6.54295 7.15107L10.1252 5.09088L10.1319 13.4828C10.1373 20.1749 10.1319 21.8807 10.105 21.9047ZM17.3997 16.8335L19.4301 17.9679L19.4369 21.9176C19.4407 24.1053 19.4334 25.8634 19.4206 25.8584C19.408 25.8535 17.98 24.9676 16.2473 23.8897L13.0971 21.9299L13.0969 18.1794L13.0968 14.4288L14.233 15.0639C14.858 15.4132 16.2829 16.2095 17.3997 16.8335ZM14.9207 26.5294C16.6537 27.6073 18.0714 28.4952 18.0709 28.5026C18.0701 28.5166 11.298 32.5461 11.251 32.5605C11.2158 32.5713 4.43651 28.5756 4.44474 28.5488C4.44821 28.5376 6.05447 27.6126 8.0142 26.4932L11.5774 24.4579L11.6735 24.5138C11.7264 24.5445 13.1877 25.4516 14.9207 26.5294Z" fill="#FCFBFA"/>
</svg>
